<svg width="223" height="469" viewBox="0 0 223 469" fill="none" xmlns="http://www.w3.org/2000/svg">
<g filter="url(#filter0_f_201_3)">
<path d="M5 15.6481L15 5H210V109.352L200 120H5V15.6481Z" fill="white"/>
<path d="M5 15.6481L15 5H210V109.352L200 120H5V15.6481Z" stroke="black" stroke-width="1.5"/>
</g>
<path d="M200.5 14.5158L210.5 4.51581" stroke="black" stroke-width="1.5"/>
<path d="M5.5 14.5158H200.5" stroke="black" stroke-width="1.5"/>
<path d="M200.5 14.5158V112.516" stroke="black" stroke-width="1.5"/>
<path d="M40.13 22.6678V24.1938H52.87V22.6678H40.13ZM41.782 27.4418V28.6738H45.422V27.4418H41.782ZM41.782 29.5838V30.8298H45.422V29.5838H41.782ZM47.648 25.2998V31.0398H49.202V25.2998H47.648ZM44.834 25.1598V32.0618C44.834 32.2298 44.778 32.2858 44.596 32.2858C44.428 32.2998 43.854 32.2998 43.336 32.2718C43.546 32.6638 43.784 33.2798 43.868 33.6998C44.736 33.6998 45.38 33.6858 45.842 33.4338C46.318 33.1958 46.458 32.8038 46.458 32.0898V25.1598H44.834ZM50.462 24.9218V31.8798C50.462 32.0758 50.392 32.1318 50.168 32.1318C49.93 32.1458 49.202 32.1458 48.488 32.1038C48.726 32.5378 48.992 33.2518 49.076 33.6998C50.112 33.7138 50.868 33.6578 51.4 33.4058C51.96 33.1538 52.114 32.7198 52.114 31.9078V24.9218H50.462ZM42.062 21.1418C42.552 21.7018 43.07 22.4998 43.266 23.0038L44.96 22.4018C44.722 21.8698 44.162 21.1278 43.658 20.5818L42.062 21.1418ZM49.244 20.5538C48.936 21.3098 48.362 22.3318 47.886 22.9898L49.398 23.5078C49.888 22.8918 50.504 21.9958 51.078 21.0998L49.244 20.5538ZM40.9 25.1598V33.6578H42.482V26.5598H45.31V25.1598H40.9ZM58.722 25.6078V27.0918H67.024V25.6078H58.722ZM61.242 28.5898V33.5878H62.516V28.5898H61.242ZM63.272 28.5898V33.5738H64.546V28.5898H63.272ZM62.026 20.6378V24.2778H63.636V20.6378H62.026ZM59.03 28.0298V33.7138H60.528V29.4298H66.128V28.0298H59.03ZM65.288 28.0298V32.2718C65.288 32.3838 65.26 32.4258 65.148 32.4258C65.05 32.4398 64.77 32.4398 64.49 32.4258C64.672 32.7898 64.84 33.3498 64.882 33.7558C65.498 33.7558 65.96 33.7418 66.338 33.5038C66.702 33.2938 66.786 32.9158 66.786 32.2998V28.0298H65.288ZM61.956 26.0978C61.886 26.8258 61.69 27.8198 61.508 28.5338L62.922 28.9398C63.216 28.3378 63.552 27.4138 63.93 26.5178L61.956 26.0978ZM59.226 21.2818V24.8798H66.59V21.2818H64.994V23.4378H60.752V21.2818H59.226ZM54.116 23.2558V24.7538H58.568V23.2558H54.116ZM55.642 20.8058V23.9838H57.14V20.8058H55.642ZM53.808 30.5498L54.172 32.1878C55.544 31.8518 57.308 31.4178 58.946 30.9838L58.778 29.5138C56.972 29.9058 55.082 30.3118 53.808 30.5498ZM54.27 25.3698C54.522 26.6858 54.704 28.4078 54.69 29.5418L56.006 29.3038C55.992 28.1698 55.81 26.4758 55.502 25.1458L54.27 25.3698ZM56.958 25.0478C56.86 26.5178 56.58 28.5478 56.286 29.8078L57.504 30.1158C57.84 28.9118 58.218 26.9518 58.512 25.3558L56.958 25.0478Z" fill="black"/>
<g filter="url(#filter1_f_201_3)">
<path d="M9.5 147.516L19.5 137.516H217.5V453.516L207.5 463.516H9.5V147.516Z" fill="white"/>
<path d="M9.5 147.516L19.5 137.516H217.5V453.516L207.5 463.516H9.5V147.516Z" stroke="black" stroke-width="1.5"/>
</g>
<path d="M207.5 146.516L217.5 136.516" stroke="black" stroke-width="1.5"/>
<path d="M9.5 146.516H207.5" stroke="black" stroke-width="1.5"/>
<path d="M207.5 146.516V462.516" stroke="black" stroke-width="1.5"/>
<path d="M58.286 156.446V158.056H69.08V156.446H58.286ZM60.694 163.544V165.098H66.7V163.544H60.694ZM57.404 153.562V157.762C57.404 159.848 57.264 162.648 55.78 164.622C56.2 164.818 56.858 165.392 57.096 165.77C58.874 163.516 59.098 160.03 59.098 157.776V154.136C59.35 154.08 59.462 154.01 59.476 153.87L57.404 153.562ZM66.644 152.638C64.502 153.226 60.932 153.674 57.754 153.87C57.922 154.234 58.146 154.906 58.188 155.312C61.464 155.13 65.244 154.724 68.002 153.968L66.644 152.638ZM59.924 159.596V165.742H61.534V161.15H66.238V165.7H67.946V159.596H59.924ZM74.722 157.608V159.092H83.024V157.608H74.722ZM77.242 160.59V165.588H78.516V160.59H77.242ZM79.272 160.59V165.574H80.546V160.59H79.272ZM78.026 152.638V156.278H79.636V152.638H78.026ZM75.03 160.03V165.714H76.528V161.43H82.128V160.03H75.03ZM81.288 160.03V164.272C81.288 164.384 81.26 164.426 81.148 164.426C81.05 164.44 80.77 164.44 80.49 164.426C80.672 164.79 80.84 165.35 80.882 165.756C81.498 165.756 81.96 165.742 82.338 165.504C82.702 165.294 82.786 164.916 82.786 164.3V160.03H81.288ZM77.956 158.098C77.886 158.826 77.69 159.82 77.508 160.534L78.922 160.94C79.216 160.338 79.552 159.414 79.93 158.518L77.956 158.098ZM75.226 153.282V156.88H82.59V153.282H80.994V155.438H76.752V153.282H75.226ZM70.116 155.256V156.754H74.568V155.256H70.116ZM71.642 152.806V155.984H73.14V152.806H71.642ZM69.808 162.55L70.172 164.188C71.544 163.852 73.308 163.418 74.946 162.984L74.778 161.514C72.972 161.906 71.082 162.312 69.808 162.55ZM70.27 157.37C70.522 158.686 70.704 160.408 70.69 161.542L72.006 161.304C71.992 160.17 71.81 158.476 71.502 157.146L70.27 157.37ZM72.958 157.048C72.86 158.518 72.58 160.548 72.286 161.808L73.504 162.116C73.84 160.912 74.218 158.952 74.512 157.356L72.958 157.048Z" fill="black"/>
<g filter="url(#filter2_f_201_3)">
<path d="M190 47.5158H25V96.5837H190V47.5158Z" fill="#DDDDDD"/>
<path d="M190 47.5158H25V96.5837H190V47.5158Z" stroke="#A80036" stroke-width="1.5"/>
</g>
<path d="M185 52.5158H170V62.5158H185V52.5158Z" fill="#DDDDDD" stroke="#A80036" stroke-width="1.5"/>
<path d="M172 54.5158H168V56.5158H172V54.5158Z" fill="#DDDDDD" stroke="#A80036" stroke-width="1.5"/>
<path d="M172 58.5158H168V60.5158H172V58.5158Z" fill="#DDDDDD" stroke="#A80036" stroke-width="1.5"/>
<path d="M41.386 71.8978V72.8078H52.628V71.8978H41.386ZM42.03 73.9558V74.8378H52.082V73.9558H42.03ZM40.868 76.0978V77.0218H53.104V76.0978H40.868ZM46.426 70.7218V76.8118H47.49V70.7218H46.426ZM46.384 76.4058C45.082 77.7918 42.548 79.1358 40.392 79.7518C40.616 79.9618 40.91 80.3538 41.078 80.6198C43.248 79.9058 45.838 78.4358 47.294 76.8398L46.384 76.4058ZM47.91 76.5458L46.958 76.7418C47.924 80.1298 49.758 82.4958 52.852 83.5598C53.006 83.2798 53.3 82.8458 53.538 82.6358C50.57 81.7538 48.75 79.5418 47.91 76.5458ZM51.9 77.4838C51.102 78.2258 49.744 79.1918 48.764 79.7798L49.408 80.3538C50.416 79.7938 51.746 78.9398 52.74 78.1418L51.9 77.4838ZM41.946 82.6358L42.282 83.6018C43.962 83.1818 46.356 82.5798 48.568 82.0058L48.47 81.0678C46.076 81.6558 43.556 82.2858 41.946 82.6358ZM43.92 79.0098V82.5658H44.97V78.3378L44.676 78.2538L43.92 79.0098ZM60.44 75.7198V82.2158C60.44 82.4398 60.37 82.5098 60.104 82.5098C59.838 82.5238 58.914 82.5238 57.962 82.4958C58.13 82.8178 58.298 83.2798 58.354 83.5878C59.586 83.5878 60.412 83.5738 60.916 83.4198C61.406 83.2378 61.574 82.9158 61.574 82.2438V75.7198H60.44ZM57.262 77.5818C56.66 79.1638 55.624 80.7038 54.476 81.6978C54.756 81.8518 55.232 82.1458 55.442 82.3418C56.562 81.2638 57.668 79.5838 58.354 77.8618L57.262 77.5818ZM63.562 78.0018C64.584 79.3458 65.634 81.1798 66.012 82.3418L67.062 81.8798C66.656 80.6898 65.564 78.9118 64.528 77.5958L63.562 78.0018ZM56.086 71.7718V72.8078H65.928V71.7718H56.086ZM54.826 75.1598V76.2098H67.174V75.1598H54.826ZM69.848 71.3938V75.4958C69.848 77.7218 69.736 80.8438 68.42 83.0558C68.686 83.1538 69.162 83.4198 69.358 83.5738C70.73 81.2918 70.912 77.8618 70.912 75.4958V71.3938H69.848ZM70.59 71.3938V72.3178H79.34V73.9978H70.59V74.9078H80.39V71.3938H70.59ZM72.256 76.1118V77.0358H80.222V76.1118H72.256ZM71.346 78.5058V79.4438H81.188V78.5058H71.346ZM77.59 80.2278C78.374 81.3338 79.326 82.8598 79.774 83.7418L80.74 83.2658C80.278 82.4118 79.284 80.9138 78.5 79.8358L77.59 80.2278ZM72.032 83.3918C72.032 83.1818 72.718 82.8598 72.718 82.8598V82.8318C73.712 81.9078 74.79 80.5218 75.644 79.1358L74.454 78.8278C73.81 80.1018 72.788 81.4178 72.466 81.7678C72.158 82.1038 71.892 82.3558 71.654 82.4118C71.78 82.6778 71.962 83.1678 72.032 83.3918ZM72.032 83.3918C72.466 83.2238 73.152 83.1678 79.62 82.7198C79.55 82.5098 79.452 82.1458 79.396 81.8658L72.662 82.2718L71.99 82.6218L72.032 83.3918Z" fill="black"/>
<g filter="url(#filter3_f_201_3)">
<path d="M185.5 179.516H29.5V228.584H185.5V179.516Z" fill="#DDDDDD"/>
<path d="M185.5 179.516H29.5V228.584H185.5V179.516Z" stroke="#A80036" stroke-width="1.5"/>
</g>
<path d="M180.5 184.516H165.5V194.516H180.5V184.516Z" fill="#DDDDDD" stroke="#A80036" stroke-width="1.5"/>
<path d="M167.5 186.516H163.5V188.516H167.5V186.516Z" fill="#DDDDDD" stroke="#A80036" stroke-width="1.5"/>
<path d="M167.5 190.516H163.5V192.516H167.5V190.516Z" fill="#DDDDDD" stroke="#A80036" stroke-width="1.5"/>
<path d="M46.712 204.528V205.522H57.688V204.528H46.712ZM46.18 204.528V208.35C46.18 210.338 46.082 213.138 45.004 215.126C45.242 215.224 45.732 215.518 45.914 215.714C47.062 213.614 47.244 210.478 47.244 208.35V204.528H46.18ZM51.038 202.89C51.36 203.506 51.738 204.332 51.906 204.864L52.97 204.528C52.802 204.024 52.41 203.24 52.06 202.624L51.038 202.89ZM48.182 207.622C48.756 209.148 49.428 211.136 49.708 212.452L50.688 212.032C50.38 210.73 49.708 208.784 49.092 207.258L48.182 207.622ZM51.22 206.852C51.682 208.364 52.2 210.352 52.382 211.654L53.39 211.36C53.18 210.058 52.662 208.098 52.172 206.572L51.22 206.852ZM55.966 206.488C55.406 208.98 54.286 211.934 52.872 214.132C53.096 214.286 53.418 214.58 53.572 214.762C55.084 212.438 56.302 209.526 57.058 206.894L55.966 206.488ZM47.412 213.95V214.958H57.87V213.95H47.412ZM61.23 203.716V204.724H70.288V203.716H61.23ZM61.23 206.978V207.972H70.274V206.978H61.23ZM61.16 210.324V211.318H70.302V210.324H61.16ZM60.642 203.716V208.784C60.642 210.758 60.488 213.25 58.948 214.986C59.172 215.126 59.592 215.476 59.76 215.686C61.426 213.824 61.678 210.926 61.678 208.798V203.716H60.642ZM69.868 203.716V214.174C69.868 214.44 69.77 214.524 69.504 214.538C69.238 214.538 68.286 214.552 67.292 214.51C67.446 214.79 67.614 215.252 67.656 215.532C68.986 215.546 69.798 215.532 70.274 215.364C70.736 215.182 70.904 214.86 70.904 214.174V203.716H69.868ZM65.038 204.094V215.476H66.102V204.094H65.038ZM74.348 203.394V207.496C74.348 209.722 74.236 212.844 72.92 215.056C73.186 215.154 73.662 215.42 73.858 215.574C75.23 213.292 75.412 209.862 75.412 207.496V203.394H74.348ZM75.09 203.394V204.318H83.84V205.998H75.09V206.908H84.89V203.394H75.09ZM76.756 208.112V209.036H84.722V208.112H76.756ZM75.846 210.506V211.444H85.688V210.506H75.846ZM82.09 212.228C82.874 213.334 83.826 214.86 84.274 215.742L85.24 215.266C84.778 214.412 83.784 212.914 83 211.836L82.09 212.228ZM76.532 215.392C76.532 215.182 77.218 214.86 77.218 214.86V214.832C78.212 213.908 79.29 212.522 80.144 211.136L78.954 210.828C78.31 212.102 77.288 213.418 76.966 213.768C76.658 214.104 76.392 214.356 76.154 214.412C76.28 214.678 76.462 215.168 76.532 215.392ZM76.532 215.392C76.966 215.224 77.652 215.168 84.12 214.72C84.05 214.51 83.952 214.146 83.896 213.866L77.162 214.272L76.49 214.622L76.532 215.392Z" fill="black"/>
<g filter="url(#filter4_f_201_3)">
<path d="M160.5 288.516H28.5V337.584H160.5V288.516Z" fill="#DDDDDD"/>
<path d="M160.5 288.516H28.5V337.584H160.5V288.516Z" stroke="#A80036" stroke-width="1.5"/>
</g>
<path d="M155.5 293.516H140.5V303.516H155.5V293.516Z" fill="#DDDDDD" stroke="#A80036" stroke-width="1.5"/>
<path d="M142.5 295.516H138.5V297.516H142.5V295.516Z" fill="#DDDDDD" stroke="#A80036" stroke-width="1.5"/>
<path d="M142.5 299.516H138.5V301.516H142.5V299.516Z" fill="#DDDDDD" stroke="#A80036" stroke-width="1.5"/>
<path d="M50.57 312.506V313.444H56.8V312.506H50.57ZM53.342 313.094C53.188 313.71 52.866 314.62 52.628 315.194L53.454 315.432C53.72 314.886 54 314.074 54.28 313.332L53.342 313.094ZM50.934 314.914V321.522H51.886V315.74H55.4V321.494H56.394V314.914H50.934ZM53.216 316.384C53.174 321.256 53.02 322.964 49.674 323.93C49.87 324.112 50.122 324.448 50.206 324.672C53.79 323.58 54.056 321.55 54.112 316.384H53.216ZM53.65 322.18C54.588 322.908 55.764 323.944 56.352 324.588L57.01 323.944C56.436 323.314 55.218 322.32 54.294 321.62L53.65 322.18ZM47.21 311.708C46.594 313.36 45.39 315.222 43.962 316.412C44.186 316.566 44.536 316.888 44.69 317.07C46.174 315.74 47.392 313.85 48.134 311.974L47.21 311.708ZM45.124 321.396C46.174 322.334 47.448 323.636 48.05 324.462L48.806 323.846C48.19 323.02 46.874 321.76 45.824 320.864L45.124 321.396ZM44.9 318.078V319.016H49.212V318.078H44.9ZM46.37 315.824C46.86 316.328 47.448 317.056 47.742 317.518L48.456 317.014C48.162 316.58 47.588 315.908 47.042 315.404L46.37 315.824ZM48.876 318.078V318.316C48.414 319.506 47.294 321.382 46.566 322.292C46.79 322.418 47.154 322.67 47.322 322.838C48.092 321.774 49.268 319.926 49.87 318.442L49.198 318.022L49.03 318.078H48.876ZM46.958 313.262C47.994 314.284 49.254 315.712 49.828 316.622L50.486 315.88C49.898 315.012 48.61 313.626 47.56 312.632L46.958 313.262ZM58.088 315.152V316.146H61.84V315.152H58.088ZM59.572 311.89V321.27H60.552V311.89H59.572ZM57.99 321.676L58.396 322.726C59.502 322.18 60.86 321.48 62.148 320.822L61.868 319.884C60.44 320.584 58.97 321.27 57.99 321.676ZM62.064 313.808V314.76H70.772V313.808H62.064ZM61.602 322.054L61.882 323.048C63.226 322.67 64.99 322.166 66.684 321.676L66.572 320.78C64.752 321.27 62.848 321.774 61.602 322.054ZM66.754 311.736C66.81 318.582 67.398 324.602 69.61 324.602C70.492 324.602 70.786 324 70.94 322.138C70.716 322.026 70.394 321.816 70.184 321.578C70.142 323.034 70.002 323.594 69.736 323.594C68.532 323.594 67.72 318.358 67.776 311.736H66.754ZM68.322 312.282C68.938 312.73 69.652 313.374 70.016 313.808L70.646 313.206C70.296 312.786 69.54 312.17 68.938 311.764L68.322 312.282ZM69.554 316.09C68.7 319.506 67.076 322.194 64.556 323.79C64.78 323.958 65.172 324.308 65.326 324.49C67.846 322.712 69.54 319.926 70.52 316.272L69.554 316.09ZM63.31 316.944H65.13V319.296H63.31V316.944ZM62.484 316.09V320.164H65.984V316.09H62.484ZM73.348 312.394V316.496C73.348 318.722 73.236 321.844 71.92 324.056C72.186 324.154 72.662 324.42 72.858 324.574C74.23 322.292 74.412 318.862 74.412 316.496V312.394H73.348ZM74.09 312.394V313.318H82.84V314.998H74.09V315.908H83.89V312.394H74.09ZM75.756 317.112V318.036H83.722V317.112H75.756ZM74.846 319.506V320.444H84.688V319.506H74.846ZM81.09 321.228C81.874 322.334 82.826 323.86 83.274 324.742L84.24 324.266C83.778 323.412 82.784 321.914 82 320.836L81.09 321.228ZM75.532 324.392C75.532 324.182 76.218 323.86 76.218 323.86V323.832C77.212 322.908 78.29 321.522 79.144 320.136L77.954 319.828C77.31 321.102 76.288 322.418 75.966 322.768C75.658 323.104 75.392 323.356 75.154 323.412C75.28 323.678 75.462 324.168 75.532 324.392ZM75.532 324.392C75.966 324.224 76.652 324.168 83.12 323.72C83.05 323.51 82.952 323.146 82.896 322.866L76.162 323.272L75.49 323.622L75.532 324.392Z" fill="black"/>
<g filter="url(#filter5_f_201_3)">
<path d="M201 397.516H26V446.584H201V397.516Z" fill="#DDDDDD"/>
<path d="M201 397.516H26V446.584H201V397.516Z" stroke="#A80036" stroke-width="1.5"/>
</g>
<path d="M196 402.516H181V412.516H196V402.516Z" fill="#DDDDDD" stroke="#A80036" stroke-width="1.5"/>
<path d="M183 404.516H179V406.516H183V404.516Z" fill="#DDDDDD" stroke="#A80036" stroke-width="1.5"/>
<path d="M183 408.516H179V410.516H183V408.516Z" fill="#DDDDDD" stroke="#A80036" stroke-width="1.5"/>
<path d="M42.288 422.08V422.976H53.754V422.08H42.288ZM42.736 432.342V433.224H53.334V432.342H42.736ZM45.046 423.9V424.698H50.94V423.9H45.046ZM45.046 425.664V426.462H50.94V425.664H45.046ZM41.63 427.47V428.352H54.356V427.47H41.63ZM44.57 429.976V430.844H51.444V429.976H44.57ZM44.416 420.736V427.96H45.466V420.736H44.416ZM50.576 420.736V427.96H51.626V420.736H50.576ZM47.426 428.8V432.832H48.504V428.8H47.426ZM45.158 427.708C44.402 428.94 42.904 430.144 41.49 430.704C41.728 430.9 42.022 431.264 42.176 431.502C43.646 430.816 45.186 429.486 46.04 428.044L45.158 427.708ZM50.884 427.708L50.058 428.03C50.87 429.402 52.354 430.704 53.838 431.334C53.992 431.082 54.3 430.718 54.538 430.522C53.082 430.004 51.626 428.898 50.884 427.708ZM55.7 421.478V422.444H60.488V421.478H55.7ZM57.072 425.79V426.728H59.256V430.9H57.072V431.838H60.152V425.79H57.072ZM57.506 421.94C57.128 424.278 56.47 426.462 55.392 427.89C55.574 428.17 55.812 428.772 55.882 429.024C57.17 427.344 57.982 424.796 58.486 422.15L57.506 421.94ZM56.61 425.79V432.972H57.506V425.79H56.61ZM61.244 422.052V426.602H67.642V422.052H66.648V425.65H62.196V422.052H61.244ZM63.96 420.82V432.384H64.982V420.82H63.96ZM66.998 427.596V433.462H68.02V427.596H66.998ZM60.908 427.596V432.72H67.586V431.712H61.972V427.596H60.908ZM70.694 421.632C71.45 422.29 72.388 423.228 72.822 423.83L73.536 423.074C73.088 422.5 72.136 421.604 71.38 420.988L70.694 421.632ZM71.436 433.322C71.66 433.056 72.038 432.762 74.53 430.914C74.404 430.718 74.236 430.326 74.138 430.046L71.52 431.95L71.24 432.384L71.436 433.322ZM69.602 425.118V426.14H72.08V425.118H69.602ZM76.154 421.24V422.22H79.822V421.24H76.154ZM74.362 426.91V427.904H80.9V426.91H74.362ZM80.578 426.91V427.078C79.584 430.172 76.798 432.02 73.774 432.692C73.956 432.93 74.18 433.35 74.278 433.616C77.54 432.748 80.452 430.816 81.6 427.162L80.956 426.868L80.774 426.91H80.578ZM75.776 427.652L74.894 427.96C76.168 430.858 78.52 432.846 81.824 433.644C81.964 433.364 82.244 432.944 82.482 432.72C79.262 432.048 76.882 430.214 75.776 427.652ZM75.874 421.24V422.794C75.874 423.816 75.552 424.978 73.704 425.832C73.9 425.986 74.264 426.392 74.39 426.602C76.406 425.636 76.854 424.124 76.854 422.808V421.24H75.874ZM79.332 421.24V424.474C79.332 425.524 79.542 425.93 80.508 425.93C80.676 425.93 81.362 425.93 81.572 425.93C81.852 425.93 82.132 425.916 82.314 425.846C82.272 425.608 82.23 425.216 82.216 424.95C82.034 424.992 81.74 425.02 81.558 425.02C81.376 425.02 80.746 425.02 80.578 425.02C80.368 425.02 80.326 424.88 80.326 424.488V421.24H79.332ZM71.436 433.322C71.436 432.916 72.584 432.062 72.584 432.062V425.118H71.576V431.166C71.576 431.796 71.128 432.258 70.876 432.44C71.058 432.636 71.352 433.084 71.436 433.322ZM90.49 422.696V423.662H96.356V422.696H90.49ZM92.492 424.18V431.236H93.402V424.18H92.492ZM90.826 420.722C90.434 422.458 89.72 424.124 88.754 425.202C88.992 425.37 89.398 425.748 89.566 425.93C90.574 424.712 91.386 422.878 91.862 420.932L90.826 420.722ZM88.978 428.072L89.37 428.926L95.516 426.028L95.138 425.174L88.978 428.072ZM90.21 425.286V431.978C90.21 433.224 90.602 433.546 92.002 433.546C92.31 433.546 94.536 433.546 94.858 433.546C96.048 433.546 96.356 433.07 96.482 431.404C96.216 431.334 95.824 431.18 95.586 431.026C95.53 432.384 95.418 432.636 94.802 432.636C94.326 432.636 92.422 432.636 92.072 432.636C91.302 432.636 91.176 432.524 91.176 431.992V425.286H90.21ZM94.886 425.398C94.886 427.512 94.872 429.178 94.83 429.43C94.802 429.654 94.704 429.696 94.536 429.696C94.41 429.696 94.074 429.696 93.808 429.682C93.92 429.892 94.004 430.242 94.032 430.508C94.354 430.508 94.788 430.494 95.096 430.424C95.446 430.34 95.684 430.102 95.726 429.654C95.782 429.248 95.796 427.484 95.81 425.482L95.852 425.314L95.194 425.062L95.012 425.188L94.774 425.398H94.886ZM83.602 423.018V423.998H89.524V423.018H83.602ZM85.618 425.93V426.896H88.082V425.93H85.618ZM86.066 420.75V423.368H87.088V420.75H86.066ZM85.142 423.578C85.1 427.19 84.974 430.886 83.448 432.916C83.728 433.07 84.064 433.378 84.246 433.602C85.898 431.362 86.08 427.484 86.136 423.578H85.142ZM87.746 425.93V426.14C87.662 430.62 87.55 432.174 87.312 432.496C87.2 432.664 87.074 432.692 86.878 432.692C86.668 432.692 86.15 432.692 85.576 432.636C85.73 432.902 85.828 433.308 85.842 433.588C86.43 433.616 87.004 433.616 87.34 433.588C87.704 433.546 87.942 433.434 88.166 433.126C88.53 432.65 88.6 431.068 88.698 426.406C88.712 426.266 88.712 425.93 88.712 425.93H87.746ZM98.848 421.394V425.496C98.848 427.722 98.736 430.844 97.42 433.056C97.686 433.154 98.162 433.42 98.358 433.574C99.73 431.292 99.912 427.862 99.912 425.496V421.394H98.848ZM99.59 421.394V422.318H108.34V423.998H99.59V424.908H109.39V421.394H99.59ZM101.256 426.112V427.036H109.222V426.112H101.256ZM100.346 428.506V429.444H110.188V428.506H100.346ZM106.59 430.228C107.374 431.334 108.326 432.86 108.774 433.742L109.74 433.266C109.278 432.412 108.284 430.914 107.5 429.836L106.59 430.228ZM101.032 433.392C101.032 433.182 101.718 432.86 101.718 432.86V432.832C102.712 431.908 103.79 430.522 104.644 429.136L103.454 428.828C102.81 430.102 101.788 431.418 101.466 431.768C101.158 432.104 100.892 432.356 100.654 432.412C100.78 432.678 100.962 433.168 101.032 433.392ZM101.032 433.392C101.466 433.224 102.152 433.168 108.62 432.72C108.55 432.51 108.452 432.146 108.396 431.866L101.662 432.272L100.99 432.622L101.032 433.392Z" fill="black"/>
<path d="M107.5 96.5358V174.176" stroke="#A80036" stroke-dasharray="7 7"/>
<path d="M107.5 179.176L111.5 170.176L107.5 174.176L103.5 170.176L107.5 179.176Z" fill="#A80036" stroke="#A80036"/>
<path d="M95 228.746V283.376" stroke="#A80036" stroke-dasharray="7 7"/>
<path d="M95 288.376L99 279.376L95 283.376L91 279.376L95 288.376Z" fill="#A80036" stroke="#A80036"/>
<path d="M173 228.596V392.186" stroke="#A80036" stroke-dasharray="7 7"/>
<path d="M173 397.186L177 388.186L173 392.186L169 388.186L173 397.186Z" fill="#A80036" stroke="#A80036"/>
<path d="M94.5 342.746V397.376" stroke="#A80036" stroke-dasharray="7 7"/>
<path d="M94.5 337.746L90.5 346.746L94.5 342.746L98.5 346.746L94.5 337.746Z" fill="#A80036" stroke="#A80036"/>
<defs>
<filter id="filter0_f_201_3" x="0.25" y="0.25" width="214.5" height="124.5" filterUnits="userSpaceOnUse" color-interpolation-filters="sRGB">
<feFlood flood-opacity="0" result="BackgroundImageFix"/>
<feBlend mode="normal" in="SourceGraphic" in2="BackgroundImageFix" result="shape"/>
<feGaussianBlur stdDeviation="2" result="effect1_foregroundBlur_201_3"/>
</filter>
<filter id="filter1_f_201_3" x="4.75" y="132.766" width="217.5" height="335.5" filterUnits="userSpaceOnUse" color-interpolation-filters="sRGB">
<feFlood flood-opacity="0" result="BackgroundImageFix"/>
<feBlend mode="normal" in="SourceGraphic" in2="BackgroundImageFix" result="shape"/>
<feGaussianBlur stdDeviation="2" result="effect1_foregroundBlur_201_3"/>
</filter>
<filter id="filter2_f_201_3" x="20.25" y="42.7658" width="174.5" height="58.5679" filterUnits="userSpaceOnUse" color-interpolation-filters="sRGB">
<feFlood flood-opacity="0" result="BackgroundImageFix"/>
<feBlend mode="normal" in="SourceGraphic" in2="BackgroundImageFix" result="shape"/>
<feGaussianBlur stdDeviation="2" result="effect1_foregroundBlur_201_3"/>
</filter>
<filter id="filter3_f_201_3" x="24.75" y="174.766" width="165.5" height="58.5679" filterUnits="userSpaceOnUse" color-interpolation-filters="sRGB">
<feFlood flood-opacity="0" result="BackgroundImageFix"/>
<feBlend mode="normal" in="SourceGraphic" in2="BackgroundImageFix" result="shape"/>
<feGaussianBlur stdDeviation="2" result="effect1_foregroundBlur_201_3"/>
</filter>
<filter id="filter4_f_201_3" x="23.75" y="283.766" width="141.5" height="58.5679" filterUnits="userSpaceOnUse" color-interpolation-filters="sRGB">
<feFlood flood-opacity="0" result="BackgroundImageFix"/>
<feBlend mode="normal" in="SourceGraphic" in2="BackgroundImageFix" result="shape"/>
<feGaussianBlur stdDeviation="2" result="effect1_foregroundBlur_201_3"/>
</filter>
<filter id="filter5_f_201_3" x="21.25" y="392.766" width="184.5" height="58.5679" filterUnits="userSpaceOnUse" color-interpolation-filters="sRGB">
<feFlood flood-opacity="0" result="BackgroundImageFix"/>
<feBlend mode="normal" in="SourceGraphic" in2="BackgroundImageFix" result="shape"/>
<feGaussianBlur stdDeviation="2" result="effect1_foregroundBlur_201_3"/>
</filter>
</defs>
</svg>
