<?xml version="1.0" standalone="no"?><!DOCTYPE svg PUBLIC "-//W3C//DTD SVG 1.1//EN" "http://www.w3.org/Graphics/SVG/1.1/DTD/svg11.dtd"><svg t="1655105102126" class="icon" viewBox="0 0 1024 1024" version="1.1" xmlns="http://www.w3.org/2000/svg" p-id="5442" xmlns:xlink="http://www.w3.org/1999/xlink" width="200" height="200"><defs><style type="text/css">@font-face { font-family: feedback-iconfont; src: url("//at.alicdn.com/t/font_1031158_u69w8yhxdu.woff2?t=1630033759944") format("woff2"), url("//at.alicdn.com/t/font_1031158_u69w8yhxdu.woff?t=1630033759944") format("woff"), url("//at.alicdn.com/t/font_1031158_u69w8yhxdu.ttf?t=1630033759944") format("truetype"); }
</style></defs><path d="M514.57 959.33H152.86l0.09-180.67C95.16 701.06 64.67 609.1 64.67 512 64.67 265.34 265.34 64.67 512 64.67S959.33 265.34 959.33 512c0 235.23-183.66 429.49-415.12 446.13v1.14l-29.64 0.06z m-302.4-59.3l302.21-0.06C727.03 898.68 900.03 724.65 900.03 512c0-213.96-174.07-388.03-388.03-388.03-213.96 0-388.04 174.07-388.04 388.03 0 87.21 28.36 169.66 82.01 238.42l6.28 8.05-0.08 141.56z" p-id="5443"></path><path d="M663.46 477.27h-310.1c-16.37 0-29.65-13.28-29.65-29.65 0-16.37 13.28-29.65 29.65-29.65h310.1c16.37 0 29.65 13.28 29.65 29.65 0 16.37-13.27 29.65-29.65 29.65zM538.74 636.8H353.37c-16.37 0-29.65-13.28-29.65-29.65S337 577.5 353.37 577.5h185.37c16.37 0 29.65 13.28 29.65 29.65s-13.28 29.65-29.65 29.65z" p-id="5444"></path></svg>