<svg width="43" height="43" viewBox="0 0 43 43" fill="none" xmlns="http://www.w3.org/2000/svg">
<circle cx="21.5" cy="21.5" r="21.5" fill="#9570FF" fill-opacity="0.19"/>
<path d="M29.5824 28.3361L26.3267 25.1068C27.5905 23.531 28.2025 21.531 28.0369 19.5179C27.8713 17.5048 26.9407 15.6316 25.4365 14.2836C23.9322 12.9356 21.9686 12.2151 19.9495 12.2704C17.9304 12.3256 16.0091 13.1524 14.5808 14.5807C13.1526 16.0089 12.3258 17.9302 12.2705 19.9493C12.2153 21.9685 12.9358 23.932 14.2838 25.4363C15.6318 26.9405 17.505 27.8711 19.5181 28.0367C21.5312 28.2023 23.5312 27.5903 25.1069 26.3266L28.3363 29.5559C28.4179 29.6382 28.515 29.7035 28.6219 29.748C28.7288 29.7926 28.8435 29.8155 28.9594 29.8155C29.0752 29.8155 29.1899 29.7926 29.2969 29.748C29.4038 29.7035 29.5009 29.6382 29.5824 29.5559C29.7406 29.3923 29.829 29.1736 29.829 28.946C29.829 28.7185 29.7406 28.4998 29.5824 28.3361ZM20.1839 26.3266C18.9689 26.3266 17.7813 25.9663 16.7711 25.2913C15.7609 24.6163 14.9736 23.6569 14.5086 22.5345C14.0437 21.412 13.922 20.1769 14.1591 18.9853C14.3961 17.7937 14.9811 16.6991 15.8402 15.84C16.6993 14.9809 17.7939 14.3959 18.9855 14.1589C20.1771 13.9218 21.4122 14.0435 22.5346 14.5084C23.6571 14.9734 24.6165 15.7607 25.2915 16.7709C25.9665 17.7811 26.3267 18.9688 26.3267 20.1837C26.3267 21.8129 25.6795 23.3753 24.5275 24.5274C23.3755 25.6794 21.8131 26.3266 20.1839 26.3266Z" fill="#333333"/>
</svg>
